# xmcd
#
# Track frame offsets: 
#        150
#        15178
#        30872
#        44585
#        58977
#        71145
#        85913
#        98438
#        113470
#        127804
#        141870
#        157248
#        171929
#        185661
#        199681
#        213970
#        228744
#        245681
#        261185
#        276407
#        289993
#        304131
#        320903
#        334857
#        348678
#
# Disc length: 4799 seconds
#
# Revision: 0
# Processed by: cddbd v1.5.2PL0 Copyright (c) Steve Scherf et al.
# Submitted via: ExactAudioCopyFreeDBPlugin 1.0
#
DISCID=8112bd19
DTITLE=Various Artist - The Complete History of the Blues (1920 - 196
DTITLE=2) - Disc 1
DYEAR=1900
DGENRE=Blues
TTITLE0=Mamie Smith - Crazy Blues
TTITLE1=Bessie Smith - Down Hearted Blues
TTITLE2=Sylvester Weaver - Guitar Rag
TTITLE3=Ma Rainey - See See Rider
TTITLE4=Papa Charlie Jackson - All I Want Is a Spoonful
TTITLE5=Bertha 'Chippie' Hill - Trouble in Mind
TTITLE6=Blind Lemon Jefferson - Jack O' Diamond Blues
TTITLE7=Freddie Spruell - Milk Cow Blues
TTITLE8=Blind Blake - West Coast Blues
TTITLE9=Richard "Rabbit" Brown - James Alley Blues
TTITLE10=Luke Jordan - Cocaine Blues
TTITLE11=Jim Jackson - Jim Jackson's Kansas City Blues Pt. 1
TTITLE12=Casey Bill Weldon - Hitch Me to Your Buggy and Drive Me Like 
TTITLE12=a Mule
TTITLE13=Lonnie Johnson - Life Saver Blues
TTITLE14=Blind Willie Johnson - It's Nobody's Fault but Mine
TTITLE15=Meade Lux Lewis - Honky Tonk Train Blues
TTITLE16=Gus Cannon - Minglewood Blues
TTITLE17=Tommy Johnson - Cool Drink of Water Blues
TTITLE18=Mississippi John Hurt - Frankie
TTITLE19=Leroy Carr - How Long, How Long Blues
TTITLE20=Cow Cow Davenport - Cow Cow Blues
TTITLE21=Ishman Bracey - Leavin' Town Blues
TTITLE22=Furry Lewis - Kassie Jones Pt. 1
TTITLE23=Frank Stokes - Nehi Mamma Blues
TTITLE24=Blind Willie McTell - Statesboro Blues
EXTD=
EXTT0=
EXTT1=
EXTT2=
EXTT3=
EXTT4=
EXTT5=
EXTT6=
EXTT7=
EXTT8=
EXTT9=
EXTT10=
EXTT11=
EXTT12=
EXTT13=
EXTT14=
EXTT15=
EXTT16=
EXTT17=
EXTT18=
EXTT19=
EXTT20=
EXTT21=
EXTT22=
EXTT23=
EXTT24=
PLAYORDER=
